<?xml version="1.0" encoding="utf-8"?>
<!-- Generator: Adobe Illustrator 27.0.0, SVG Export Plug-In . SVG Version: 6.00 Build 0)  -->
<svg version="1.1" id="Layer_1" xmlns="http://www.w3.org/2000/svg" xmlns:xlink="http://www.w3.org/1999/xlink" x="0px" y="0px"
	 viewBox="0 0 89.7 90" style="enable-background:new 0 0 89.7 90;" xml:space="preserve">
<style type="text/css">
	.st0{fill:none;}
	.st1{fill:#00A3DD;}
</style>
<g id="_x33_4432be6-8887-488c-a629-5190854c30e9" transform="matrix(Infinity,0,0,Infinity,0,0)">
	<path class="st0" d="M0,0"/>
</g>
<g id="_x34_b78a8fd-91ba-4d63-b06f-004c1ec3cdae" transform="matrix(1.0642466295717168,0,0,1.0642466295717168,209.9472617238064,-227.7958794602261)">
	<g>
		<path class="st1" d="M-122.5,299.3c5.3,0,9.5-4.3,9.5-9.5c0-5.3-4.3-9.5-9.5-9.5c-5.3,0-9.5,4.3-9.5,9.5S-127.8,299.3-122.5,299.3
			z M-136.4,233.1c5,0.6,9.6-3,10.2-8c0.6-5.1-3-9.7-8-10.3c-5.2-0.6-9.7,2.9-10.3,8S-141.5,232.4-136.4,233.1z M-179.1,235.2
			c2.2-2.8,4.4-5.6,6.6-8.5c0.8-1.1,1.8-1.5,3.2-1.3c6.1,0.8,12.3,1.4,18.4,2.2c1.1,0.1,2.3,0.7,3.2,1.4c3.2,2.5,6.2,5.2,9.3,7.8
			c1.7,1.4,2.4,3.2,2.1,5.4c-0.4,3-0.7,6-1,9c0,0.4-0.1,0.7-0.1,1.2c0.4,0.1,0.8,0.1,1.1,0.1c3.4,0.4,6.7,0.8,10.1,1.2
			c2.4,0.3,3.9,2,3.7,4.3c-0.3,2.3-2.2,3.8-4.6,3.5c-5.4-0.6-10.9-1.3-16.3-1.9c-1.7-0.2-2.5-1.2-2.3-2.9c0.3-2.5,0.6-5.1,0.9-7.6
			v-0.5c-3,3.7-6,7.2-9,10.8c0.3,0.3,0.6,0.5,0.8,0.7c3,2.4,6,4.8,9,7.1c1.4,1.1,2,2.5,1.8,4.3l-2.7,23.4c-0.3,2.9-2.4,4.6-5.4,4.3
			c-2.9-0.3-4.5-1.7-4.8-4.1c-0.1-0.5,0-0.9,0.1-1.4c0.8-6.6,1.5-13.2,2.3-19.8c0.1-0.5,0.1-0.9-0.4-1.3c-2.9-2.1-5.8-4.3-8.7-6.5
			l-3.5-3.5c-0.5-0.5-6.1-6.4-1.3-12.4c3.7-4.7,7.4-9.4,11.2-14.1c0.2-0.3,0.5-0.6,0.8-1c-0.3-0.1-0.6-0.2-0.8-0.2
			c-3.7-0.4-7.5-0.9-11.2-1.3c-0.7-0.1-1,0.1-1.4,0.6c-1.6,2-3.1,4-4.7,6s-3.9,2.3-5.8,0.9C-180.5,239.7-180.7,237.2-179.1,235.2
			L-179.1,235.2z M-197,265.6c0.2-2.2,1.2-4,3.3-5c1.5-0.7,2.9-0.4,4.2,0.4l10.8,6c0.3,0.2,0.6,0.4,1.1,0.6c0.2-0.4,0.4-0.7,0.5-1
			c2-3.6,1.8-3.2,3.8-6.8c0.1-0.1,0.8-1.4,1.4-2.4c0.6,3.2,2.4,5.9,4,7.6l2.2,2.2c-2.1,3.8-4.3,7.7-6.3,11.3
			c-1.2,2.2-2.6,2.6-4.8,1.4c-5.9-3.3-11.8-6.6-17.7-9.8C-196.1,269-197.2,267.6-197,265.6L-197,265.6z"/>
	</g>
</g>
</svg>
