<svg data-v-423bf9ae="" xmlns="http://www.w3.org/2000/svg" viewBox="0 0 671 90" class="iconLeft"><!----><!----><!----><g data-v-423bf9ae="" id="2a5e68b3-e085-4bba-9b54-e9025af0a2e6" fill="#000000" transform="matrix(5.628517904206723,0,0,5.628517904206723,105.25654764748424,15.056285411199994)"><path d="M6.94 2.30L6.26 3.95L6.26 3.95Q5.73 3.54 5.16 3.32L5.16 3.32L5.16 3.32Q4.59 3.09 4.09 3.09L4.09 3.09L4.09 3.09Q3.54 3.09 3.28 3.24L3.28 3.24L3.28 3.24Q3.01 3.39 3.01 3.88L3.01 3.88L3.01 3.88Q3.01 4.13 3.12 4.31L3.12 4.31L3.12 4.31Q3.22 4.49 3.42 4.63L3.42 4.63L3.42 4.63Q3.61 4.77 3.89 4.88L3.89 4.88L3.89 4.88Q4.16 4.98 4.48 5.10L4.48 5.10L4.48 5.10Q4.96 5.25 5.45 5.45L5.45 5.45L5.45 5.45Q5.94 5.64 6.33 5.95L6.33 5.95L6.33 5.95Q6.73 6.26 6.99 6.73L6.99 6.73L6.99 6.73Q7.24 7.21 7.24 7.94L7.24 7.94L7.24 7.94Q7.24 8.65 6.96 9.16L6.96 9.16L6.96 9.16Q6.69 9.67 6.24 10.00L6.24 10.00L6.24 10.00Q5.80 10.33 5.22 10.49L5.22 10.49L5.22 10.49Q4.65 10.65 4.03 10.65L4.03 10.65L4.03 10.65Q3.14 10.65 2.26 10.30L2.26 10.30L2.26 10.30Q1.39 9.95 0.74 9.27L0.74 9.27L1.41 7.67L1.41 7.67Q1.99 8.27 2.71 8.61L2.71 8.61L2.71 8.61Q3.43 8.95 4.09 8.95L4.09 8.95L4.09 8.95Q4.68 8.95 4.99 8.78L4.99 8.78L4.99 8.78Q5.31 8.61 5.32 8.09L5.32 8.09L5.32 8.09Q5.32 7.80 5.21 7.59L5.21 7.59L5.21 7.59Q5.10 7.38 4.89 7.22L4.89 7.22L4.89 7.22Q4.68 7.07 4.40 6.96L4.40 6.96L4.40 6.96Q4.12 6.85 3.78 6.73L3.78 6.73L3.78 6.73Q3.30 6.58 2.83 6.39L2.83 6.39L2.83 6.39Q2.35 6.20 1.97 5.89L1.97 5.89L1.97 5.89Q1.60 5.59 1.36 5.13L1.36 5.13L1.36 5.13Q1.13 4.68 1.13 3.98L1.13 3.98L1.13 3.98Q1.13 3.28 1.39 2.78L1.39 2.78L1.39 2.78Q1.64 2.28 2.06 1.97L2.06 1.97L2.06 1.97Q2.48 1.65 3.02 1.50L3.02 1.50L3.02 1.50Q3.57 1.36 4.16 1.36L4.16 1.36L4.16 1.36Q4.91 1.36 5.63 1.61L5.63 1.61L5.63 1.61Q6.36 1.86 6.94 2.30L6.94 2.30ZM11.82 9.20L11.82 9.20L11.82 9.20Q12.22 9.20 12.57 9.13L12.57 9.13L12.57 9.13Q12.74 9.09 12.91 9.04L12.91 9.04L12.92 10.50L12.92 10.50Q12.67 10.54 12.39 10.58L12.39 10.58L12.39 10.58Q12.15 10.61 11.83 10.63L11.83 10.63L11.83 10.63Q11.51 10.65 11.14 10.65L11.14 10.65L11.14 10.65Q10.61 10.60 10.21 10.33L10.21 10.33L10.21 10.33Q9.86 10.09 9.57 9.63L9.57 9.63L9.57 9.63Q9.28 9.16 9.28 8.30L9.28 8.30L9.28 5.36L7.91 5.36L7.91 3.99L9.28 3.99L9.28 1.97L11.14 1.55L11.14 3.99L12.84 3.99L12.84 5.36L11.17 5.36L11.17 8.20L11.17 8.20Q11.17 8.39 11.22 8.56L11.22 8.56L11.22 8.56Q11.27 8.74 11.36 8.88L11.36 8.88L11.36 8.88Q11.45 9.02 11.57 9.11L11.57 9.11L11.57 9.11Q11.69 9.20 11.82 9.20ZM17.12 3.12L17.12 3.12L17.12 3.12Q17.58 3.12 18.12 3.27L18.12 3.27L18.12 3.27Q18.65 3.42 19.11 3.75L19.11 3.75L19.11 3.75Q19.57 4.07 19.87 4.59L19.87 4.59L19.87 4.59Q20.16 5.11 20.15 5.85L20.15 5.85L20.15 10.50L18.77 10.50L18.77 10.50Q18.77 10.50 18.73 10.33L18.73 10.33L18.73 10.33Q18.69 10.16 18.64 9.95L18.64 9.95L18.64 9.95Q18.59 9.74 18.55 9.58L18.55 9.58L18.55 9.58Q18.51 9.42 18.51 9.44L18.51 9.44L18.51 9.44Q18.31 9.79 17.99 10.05L17.99 10.05L17.99 10.05Q17.71 10.29 17.27 10.47L17.27 10.47L17.27 10.47Q16.83 10.65 16.18 10.65L16.18 10.65L16.18 10.65Q15.74 10.65 15.30 10.52L15.30 10.52L15.30 10.52Q14.87 10.39 14.53 10.13L14.53 10.13L14.53 10.13Q14.18 9.87 13.96 9.48L13.96 9.48L13.96 9.48Q13.75 9.09 13.73 8.57L13.73 8.57L13.73 8.57Q13.71 8.02 13.88 7.59L13.88 7.59L13.88 7.59Q14.06 7.17 14.38 6.86L14.38 6.86L14.38 6.86Q14.71 6.55 15.18 6.36L15.18 6.36L15.18 6.36Q15.64 6.17 16.18 6.10L16.18 6.10L16.18 6.10Q16.70 6.03 17.32 6.03L17.32 6.03L17.32 6.03Q17.93 6.03 18.42 6.06L18.42 6.06L18.42 5.84L18.42 5.84Q18.42 5.24 18.16 4.93L18.16 4.93L18.16 4.93Q17.89 4.63 17.49 4.54L17.49 4.54L17.49 4.54Q17.09 4.45 16.62 4.52L16.62 4.52L16.62 4.52Q16.14 4.59 15.71 4.72L15.71 4.72L15.71 4.72Q15.27 4.86 14.95 5.00L14.95 5.00L14.95 5.00Q14.62 5.15 14.53 5.22L14.53 5.22L14.53 3.81L14.53 3.81Q14.55 3.79 14.78 3.69L14.78 3.69L14.78 3.69Q15.02 3.58 15.39 3.46L15.39 3.46L15.39 3.46Q15.75 3.33 16.20 3.23L16.20 3.23L16.20 3.23Q16.66 3.12 17.12 3.12ZM18.02 8.68L18.02 8.68L18.02 8.68Q18.26 8.37 18.33 7.99L18.33 7.99L18.33 7.99Q18.41 7.62 18.41 7.20L18.41 7.20L17.60 7.20L17.60 7.20Q17.28 7.20 16.91 7.24L16.91 7.24L16.91 7.24Q16.55 7.28 16.24 7.41L16.24 7.41L16.24 7.41Q15.93 7.53 15.72 7.78L15.72 7.78L15.72 7.78Q15.51 8.02 15.51 8.44L15.51 8.44L15.51 8.44Q15.51 8.90 15.86 9.11L15.86 9.11L15.86 9.11Q16.20 9.32 16.70 9.32L16.70 9.32L16.70 9.32Q17.14 9.32 17.46 9.15L17.46 9.15L17.46 9.15Q17.79 8.97 18.02 8.68ZM24.44 3.12L24.44 3.12L24.44 3.12Q24.98 3.12 25.39 3.30L25.39 3.30L25.39 3.30Q25.80 3.47 26.08 3.67L26.08 3.67L26.08 3.67Q26.40 3.92 26.64 4.21L26.64 4.21L26.64 1.55L28.52 1.55L28.52 10.50L27.06 10.50L26.70 9.53L26.70 9.53Q26.49 9.84 26.17 10.09L26.17 10.09L26.17 10.09Q25.89 10.30 25.46 10.48L25.46 10.48L25.46 10.48Q25.03 10.65 24.44 10.65L24.44 10.65L24.44 10.65Q23.62 10.65 23.04 10.35L23.04 10.35L23.04 10.35Q22.47 10.05 22.11 9.55L22.11 9.55L22.11 9.55Q21.76 9.04 21.59 8.37L21.59 8.37L21.59 8.37Q21.43 7.69 21.43 6.93L21.43 6.93L21.43 6.93Q21.43 6.17 21.59 5.49L21.59 5.49L21.59 5.49Q21.76 4.80 22.11 4.28L22.11 4.28L22.11 4.28Q22.47 3.75 23.04 3.44L23.04 3.44L23.04 3.44Q23.62 3.12 24.44 3.12ZM25.03 9.18L25.03 9.18L25.03 9.18Q25.70 9.18 26.17 8.64L26.17 8.64L26.17 8.64Q26.64 8.09 26.64 6.93L26.64 6.93L26.64 6.93Q26.64 5.78 26.17 5.18L26.17 5.18L26.17 5.18Q25.70 4.58 25.03 4.58L25.03 4.58L25.03 4.58Q24.70 4.58 24.40 4.73L24.40 4.73L24.40 4.73Q24.11 4.89 23.89 5.18L23.89 5.18L23.89 5.18Q23.67 5.47 23.54 5.92L23.54 5.92L23.54 5.92Q23.41 6.36 23.41 6.93L23.41 6.93L23.41 6.93Q23.41 7.50 23.54 7.93L23.54 7.93L23.54 7.93Q23.67 8.36 23.89 8.64L23.89 8.64L23.89 8.64Q24.11 8.92 24.40 9.05L24.40 9.05L24.40 9.05Q24.70 9.18 25.03 9.18ZM32.47 10.50L30.58 10.50L30.58 3.29L32.47 3.29L32.47 10.50ZM32.56 1.02L32.56 1.02L32.56 1.02Q32.56 1.47 32.26 1.78L32.26 1.78L32.26 1.78Q31.95 2.09 31.51 2.09L31.51 2.09L31.51 2.09Q31.07 2.09 30.76 1.78L30.76 1.78L30.76 1.78Q30.45 1.47 30.45 1.02L30.45 1.02L30.45 1.02Q30.45 0.59 30.76 0.29L30.76 0.29L30.76 0.29Q31.07-0.01 31.51-0.01L31.51-0.01L31.51-0.01Q31.95-0.01 32.26 0.29L32.26 0.29L32.26 0.29Q32.56 0.59 32.56 1.02ZM37.09 10.65L37.09 10.65L37.09 10.65Q36.43 10.65 35.95 10.49L35.95 10.49L35.95 10.49Q35.46 10.32 35.14 9.93L35.14 9.93L35.14 9.93Q34.82 9.55 34.66 8.94L34.66 8.94L34.66 8.94Q34.50 8.33 34.50 7.45L34.50 7.45L34.50 3.29L36.37 3.29L36.37 7.20L36.37 7.20Q36.37 8.23 36.65 8.71L36.65 8.71L36.65 8.71Q36.93 9.20 37.62 9.20L37.62 9.20L37.62 9.20Q38.44 9.20 38.84 8.52L38.84 8.52L38.84 8.52Q39.24 7.84 39.24 6.72L39.24 6.72L39.24 3.29L41.12 3.29L41.12 10.50L39.69 10.50L39.31 9.51L39.31 9.51Q39.31 9.51 39.17 9.68L39.17 9.68L39.17 9.68Q39.03 9.86 38.75 10.07L38.75 10.07L38.75 10.07Q38.47 10.29 38.06 10.47L38.06 10.47L38.06 10.47Q37.65 10.65 37.09 10.65ZM51.31 3.12L51.31 3.12L51.31 3.12Q52.07 3.12 52.52 3.39L52.52 3.39L52.52 3.39Q52.98 3.65 53.21 4.09L53.21 4.09L53.21 4.09Q53.45 4.52 53.53 5.08L53.53 5.08L53.53 5.08Q53.61 5.64 53.61 6.24L53.61 6.24L53.61 10.50L51.73 10.50L51.73 10.49L51.72 6.19L51.72 6.19Q51.72 5.84 51.67 5.54L51.67 5.54L51.67 5.54Q51.63 5.25 51.51 5.04L51.51 5.04L51.51 5.04Q51.39 4.83 51.18 4.71L51.18 4.71L51.18 4.71Q50.97 4.59 50.65 4.59L50.65 4.59L50.65 4.59Q50.23 4.59 49.95 4.79L49.95 4.79L49.95 4.79Q49.67 4.98 49.52 5.29L49.52 5.29L49.52 5.29Q49.36 5.59 49.30 5.94L49.30 5.94L49.30 5.94Q49.24 6.29 49.24 6.59L49.24 6.59L49.24 10.50L47.39 10.50L47.39 10.49L47.38 10.49L47.38 6.19L47.38 6.19Q47.38 5.84 47.33 5.54L47.33 5.54L47.33 5.54Q47.28 5.25 47.15 5.03L47.15 5.03L47.15 5.03Q47.03 4.82 46.80 4.70L46.80 4.70L46.80 4.70Q46.58 4.58 46.23 4.58L46.23 4.58L46.23 4.58Q45.84 4.58 45.58 4.77L45.58 4.77L45.58 4.77Q45.33 4.97 45.18 5.27L45.18 5.27L45.18 5.27Q45.02 5.57 44.96 5.93L44.96 5.93L44.96 5.93Q44.90 6.29 44.90 6.59L44.90 6.59L44.90 10.50L43.02 10.50L43.02 3.29L44.44 3.29L44.74 4.40L44.74 4.40Q44.74 4.40 44.87 4.20L44.87 4.20L44.87 4.20Q45.00 4.00 45.25 3.77L45.25 3.77L45.25 3.77Q45.50 3.53 45.89 3.33L45.89 3.33L45.89 3.33Q46.27 3.12 46.80 3.12L46.80 3.12L46.80 3.12Q47.50 3.12 47.94 3.32L47.94 3.32L47.94 3.32Q48.37 3.51 48.62 3.75L48.62 3.75L48.62 3.75Q48.92 4.03 49.06 4.38L49.06 4.38L49.06 4.38Q49.08 4.34 49.21 4.14L49.21 4.14L49.21 4.14Q49.34 3.95 49.60 3.72L49.60 3.72L49.60 3.72Q49.87 3.49 50.29 3.30L50.29 3.30L50.29 3.30Q50.71 3.12 51.31 3.12ZM64.20 3.98L63.57 5.39L63.57 5.39Q63.10 5.03 62.54 4.84L62.54 4.84L62.54 4.84Q61.98 4.66 61.60 4.66L61.60 4.66L61.60 4.66Q61.24 4.66 61.03 4.79L61.03 4.79L61.03 4.79Q60.82 4.91 60.82 5.24L60.82 5.24L60.82 5.24Q60.82 5.52 61.08 5.68L61.08 5.68L61.08 5.68Q61.35 5.85 61.74 6.00L61.74 6.00L61.74 6.00Q62.13 6.15 62.59 6.31L62.59 6.31L62.59 6.31Q63.06 6.47 63.45 6.73L63.45 6.73L63.45 6.73Q63.84 6.99 64.11 7.38L64.11 7.38L64.11 7.38Q64.37 7.78 64.37 8.40L64.37 8.40L64.37 8.40Q64.37 8.99 64.16 9.41L64.16 9.41L64.16 9.41Q63.94 9.84 63.58 10.12L63.58 10.12L63.58 10.12Q63.22 10.39 62.76 10.52L62.76 10.52L62.76 10.52Q62.30 10.65 61.81 10.65L61.81 10.65L61.81 10.65Q61.46 10.65 61.06 10.58L61.06 10.58L61.06 10.58Q60.66 10.50 60.28 10.34L60.28 10.34L60.28 10.34Q59.89 10.18 59.54 9.95L59.54 9.95L59.54 9.95Q59.18 9.72 58.91 9.42L58.91 9.42L59.53 8.05L59.53 8.05Q60.02 8.58 60.58 8.86L60.58 8.86L60.58 8.86Q61.14 9.13 61.60 9.13L61.60 9.13L61.60 9.13Q61.99 9.13 62.36 8.99L62.36 8.99L62.36 8.99Q62.72 8.85 62.73 8.51L62.73 8.51L62.73 8.51Q62.75 8.19 62.49 7.99L62.49 7.99L62.49 7.99Q62.23 7.78 61.84 7.63L61.84 7.63L61.84 7.63Q61.45 7.48 60.98 7.31L60.98 7.31L60.98 7.31Q60.52 7.15 60.13 6.90L60.13 6.90L60.13 6.90Q59.74 6.65 59.47 6.27L59.47 6.27L59.47 6.27Q59.21 5.89 59.22 5.29L59.22 5.29L59.22 5.29Q59.22 4.72 59.42 4.30L59.42 4.30L59.42 4.30Q59.63 3.89 59.96 3.63L59.96 3.63L59.96 3.63Q60.30 3.37 60.74 3.25L60.74 3.25L60.74 3.25Q61.18 3.12 61.66 3.12L61.66 3.12L61.66 3.12Q61.94 3.12 62.27 3.18L62.27 3.18L62.27 3.18Q62.61 3.23 62.95 3.35L62.95 3.35L62.95 3.35Q63.29 3.46 63.62 3.61L63.62 3.61L63.62 3.61Q63.95 3.77 64.20 3.98L64.20 3.98ZM69.20 3.12L69.20 3.12L69.20 3.12Q69.76 3.12 70.42 3.29L70.42 3.29L70.42 3.29Q71.08 3.46 71.65 3.88L71.65 3.88L71.65 3.88Q72.23 4.30 72.61 5.03L72.61 5.03L72.61 5.03Q73.00 5.75 73.00 6.89L73.00 6.89L73.00 6.89Q73.00 8.02 72.61 8.75L72.61 8.75L72.61 8.75Q72.23 9.48 71.65 9.90L71.65 9.90L71.65 9.90Q71.08 10.32 70.42 10.49L70.42 10.49L70.42 10.49Q69.76 10.65 69.20 10.65L69.20 10.65L69.20 10.65Q68.64 10.65 67.98 10.49L67.98 10.49L67.98 10.49Q67.33 10.32 66.76 9.90L66.76 9.90L66.76 9.90Q66.19 9.48 65.81 8.75L65.81 8.75L65.81 8.75Q65.44 8.02 65.44 6.89L65.44 6.89L65.44 6.89Q65.44 5.75 65.81 5.03L65.81 5.03L65.81 5.03Q66.19 4.30 66.76 3.88L66.76 3.88L66.76 3.88Q67.33 3.46 67.98 3.29L67.98 3.29L67.98 3.29Q68.64 3.12 69.20 3.12ZM69.20 9.25L69.20 9.25L69.20 9.25Q69.99 9.25 70.51 8.64L70.51 8.64L70.51 8.64Q71.04 8.02 71.04 6.89L71.04 6.89L71.04 6.89Q71.04 5.75 70.51 5.14L70.51 5.14L70.51 5.14Q69.99 4.54 69.20 4.54L69.20 4.54L69.20 4.54Q68.45 4.54 67.93 5.14L67.93 5.14L67.93 5.14Q67.41 5.75 67.41 6.89L67.41 6.89L67.41 6.89Q67.41 7.45 67.55 7.89L67.55 7.89L67.55 7.89Q67.69 8.33 67.93 8.63L67.93 8.63L67.93 8.63Q68.17 8.93 68.50 9.09L68.50 9.09L68.50 9.09Q68.82 9.25 69.20 9.25ZM77.77 3.12L77.77 3.12L77.77 3.12Q78.20 3.12 78.54 3.18L78.54 3.18L78.54 3.18Q78.88 3.23 79.11 3.30L79.11 3.30L79.11 3.30Q79.38 3.39 79.60 3.49L79.60 3.49L79.60 4.82L79.60 4.82Q79.06 4.65 78.42 4.59L78.42 4.59L78.42 4.59Q77.78 4.54 77.24 4.74L77.24 4.74L77.24 4.74Q76.69 4.94 76.33 5.45L76.33 5.45L76.33 5.45Q75.96 5.95 75.96 6.89L75.96 6.89L75.96 6.89Q75.96 7.87 76.33 8.38L76.33 8.38L76.33 8.38Q76.69 8.89 77.24 9.06L77.24 9.06L77.24 9.06Q77.78 9.24 78.42 9.15L78.42 9.15L78.42 9.15Q79.06 9.06 79.60 8.85L79.60 8.85L79.60 10.23L79.60 10.23Q79.39 10.36 79.11 10.44L79.11 10.44L79.11 10.44Q78.88 10.53 78.53 10.59L78.53 10.59L78.53 10.59Q78.19 10.65 77.76 10.65L77.76 10.65L77.76 10.65Q77.21 10.65 76.55 10.51L76.55 10.51L76.55 10.51Q75.89 10.37 75.33 9.97L75.33 9.97L75.33 9.97Q74.76 9.56 74.38 8.83L74.38 8.83L74.38 8.83Q74.00 8.09 74.00 6.89L74.00 6.89L74.00 6.89Q74.00 5.70 74.38 4.96L74.38 4.96L74.38 4.96Q74.76 4.21 75.33 3.81L75.33 3.81L75.33 3.81Q75.89 3.40 76.55 3.26L76.55 3.26L76.55 3.26Q77.21 3.12 77.77 3.12ZM84.21 3.12L84.21 3.12L84.21 3.12Q84.64 3.12 84.98 3.18L84.98 3.18L84.98 3.18Q85.32 3.23 85.55 3.30L85.55 3.30L85.55 3.30Q85.82 3.39 86.04 3.49L86.04 3.49L86.04 4.82L86.04 4.82Q85.50 4.65 84.86 4.59L84.86 4.59L84.86 4.59Q84.22 4.54 83.68 4.74L83.68 4.74L83.68 4.74Q83.13 4.94 82.77 5.45L82.77 5.45L82.77 5.45Q82.40 5.95 82.40 6.89L82.40 6.89L82.40 6.89Q82.40 7.87 82.77 8.38L82.77 8.38L82.77 8.38Q83.13 8.89 83.68 9.06L83.68 9.06L83.68 9.06Q84.22 9.24 84.86 9.15L84.86 9.15L84.86 9.15Q85.50 9.06 86.04 8.85L86.04 8.85L86.04 10.23L86.04 10.23Q85.83 10.36 85.55 10.44L85.55 10.44L85.55 10.44Q85.32 10.53 84.97 10.59L84.97 10.59L84.97 10.59Q84.63 10.65 84.20 10.65L84.20 10.65L84.20 10.65Q83.65 10.65 82.99 10.51L82.99 10.51L82.99 10.51Q82.33 10.37 81.77 9.97L81.77 9.97L81.77 9.97Q81.20 9.56 80.82 8.83L80.82 8.83L80.82 8.83Q80.44 8.09 80.44 6.89L80.44 6.89L80.44 6.89Q80.44 5.70 80.82 4.96L80.82 4.96L80.82 4.96Q81.20 4.21 81.77 3.81L81.77 3.81L81.77 3.81Q82.33 3.40 82.99 3.26L82.99 3.26L82.99 3.26Q83.65 3.12 84.21 3.12ZM90.65 3.12L90.65 3.12L90.65 3.12Q91.21 3.12 91.87 3.29L91.87 3.29L91.87 3.29Q92.53 3.46 93.10 3.88L93.10 3.88L93.10 3.88Q93.67 4.30 94.06 5.03L94.06 5.03L94.06 5.03Q94.44 5.75 94.44 6.89L94.44 6.89L94.44 6.89Q94.44 8.02 94.06 8.75L94.06 8.75L94.06 8.75Q93.67 9.48 93.10 9.90L93.10 9.90L93.10 9.90Q92.53 10.32 91.87 10.49L91.87 10.49L91.87 10.49Q91.21 10.65 90.65 10.65L90.65 10.65L90.65 10.65Q90.09 10.65 89.43 10.49L89.43 10.49L89.43 10.49Q88.77 10.32 88.21 9.90L88.21 9.90L88.21 9.90Q87.64 9.48 87.26 8.75L87.26 8.75L87.26 8.75Q86.88 8.02 86.88 6.89L86.88 6.89L86.88 6.89Q86.88 5.75 87.26 5.03L87.26 5.03L87.26 5.03Q87.64 4.30 88.21 3.88L88.21 3.88L88.21 3.88Q88.77 3.46 89.43 3.29L89.43 3.29L89.43 3.29Q90.09 3.12 90.65 3.12ZM90.65 9.25L90.65 9.25L90.65 9.25Q91.43 9.25 91.96 8.64L91.96 8.64L91.96 8.64Q92.48 8.02 92.48 6.89L92.48 6.89L92.48 6.89Q92.48 5.75 91.96 5.14L91.96 5.14L91.96 5.14Q91.43 4.54 90.65 4.54L90.65 4.54L90.65 4.54Q89.89 4.54 89.38 5.14L89.38 5.14L89.38 5.14Q88.86 5.75 88.86 6.89L88.86 6.89L88.86 6.89Q88.86 7.45 89.00 7.89L89.00 7.89L89.00 7.89Q89.14 8.33 89.38 8.63L89.38 8.63L89.38 8.63Q89.61 8.93 89.94 9.09L89.94 9.09L89.94 9.09Q90.27 9.25 90.65 9.25ZM100.35 3.18L100.35 5.10L100.35 5.10Q100.03 5.03 99.77 5.02L99.77 5.02L99.77 5.02Q99.51 5.01 99.29 5.03L99.29 5.03L99.29 5.03Q98.84 5.05 98.55 5.22L98.55 5.22L98.55 5.22Q98.27 5.39 98.11 5.66L98.11 5.66L98.11 5.66Q97.96 5.94 97.90 6.28L97.90 6.28L97.90 6.28Q97.85 6.62 97.85 6.99L97.85 6.99L97.85 10.50L95.96 10.50L95.96 3.36L97.34 3.36L97.64 4.93L97.64 4.93Q97.64 4.93 97.67 4.77L97.67 4.77L97.67 4.77Q97.71 4.61 97.81 4.38L97.81 4.38L97.81 4.38Q97.92 4.14 98.11 3.88L98.11 3.88L98.11 3.88Q98.31 3.63 98.61 3.43L98.61 3.43L98.61 3.43Q98.91 3.23 99.34 3.15L99.34 3.15L99.34 3.15Q99.76 3.07 100.35 3.18L100.35 3.18Z"></path></g><defs data-v-423bf9ae=""><linearGradient data-v-423bf9ae="" gradientTransform="rotate(25)" id="3aa5aedc-501d-42a6-867c-a873762513ec" x1="0%" y1="0%" x2="100%" y2="0%"><stop data-v-423bf9ae="" offset="0%" style="stop-color: rgb(0, 10, 104); stop-opacity: 1;"></stop><stop data-v-423bf9ae="" offset="100%" style="stop-color: rgb(0, 196, 238); stop-opacity: 1;"></stop></linearGradient></defs><g data-v-423bf9ae="" id="73ea8cd7-fc22-4614-8955-1c54e250f4ca" transform="matrix(1.0642466295717168,0,0,1.0642466295717168,209.9472617238064,-227.7958794602261)" stroke="none" fill="url(#3aa5aedc-501d-42a6-867c-a873762513ec)"><switch><g><path d="M-122.5 299.3c5.3 0 9.5-4.3 9.5-9.5 0-5.3-4.3-9.5-9.5-9.5-5.3 0-9.5 4.3-9.5 9.5s4.2 9.5 9.5 9.5zm-13.9-66.2c5 .6 9.6-3 10.2-8 .6-5.1-3-9.7-8-10.3-5.2-.6-9.7 2.9-10.3 8-.6 5.1 3 9.6 8.1 10.3zm-42.7 2.1c2.2-2.8 4.4-5.6 6.6-8.5.8-1.1 1.8-1.5 3.2-1.3 6.1.8 12.3 1.4 18.4 2.2 1.1.1 2.3.7 3.2 1.4 3.2 2.5 6.2 5.2 9.3 7.8 1.7 1.4 2.4 3.2 2.1 5.4-.4 3-.7 6-1 9 0 .4-.1.7-.1 1.2.4.1.8.1 1.1.1 3.4.4 6.7.8 10.1 1.2 2.4.3 3.9 2 3.7 4.3-.3 2.3-2.2 3.8-4.6 3.5-5.4-.6-10.9-1.3-16.3-1.9-1.7-.2-2.5-1.2-2.3-2.9.3-2.5.6-5.1.9-7.6v-.5c-3 3.7-6 7.2-9 10.8.3.3.6.5.8.7 3 2.4 6 4.8 9 7.1 1.4 1.1 2 2.5 1.8 4.3l-2.7 23.4c-.3 2.9-2.4 4.6-5.4 4.3-2.9-.3-4.5-1.7-4.8-4.1-.1-.5 0-.9.1-1.4.8-6.6 1.5-13.2 2.3-19.8.1-.5.1-.9-.4-1.3-2.9-2.1-5.8-4.3-8.7-6.5l-3.5-3.5c-.5-.5-6.1-6.4-1.3-12.4 3.7-4.7 7.4-9.4 11.2-14.1.2-.3.5-.6.8-1-.3-.1-.6-.2-.8-.2-3.7-.4-7.5-.9-11.2-1.3-.7-.1-1 .1-1.4.6-1.6 2-3.1 4-4.7 6s-3.9 2.3-5.8.9c-2-1.4-2.2-3.9-.6-5.9zm-17.9 30.4c.2-2.2 1.2-4 3.3-5 1.5-.7 2.9-.4 4.2.4l10.8 6c.3.2.6.4 1.1.6.2-.4.4-.7.5-1 2-3.6 1.8-3.2 3.8-6.8.1-.1.8-1.4 1.4-2.4.6 3.2 2.4 5.9 4 7.6l2.2 2.2c-2.1 3.8-4.3 7.7-6.3 11.3-1.2 2.2-2.6 2.6-4.8 1.4-5.9-3.3-11.8-6.6-17.7-9.8-1.6-1.1-2.7-2.5-2.5-4.5z"></path></g></switch></g><!----></svg>